<svg xmlns="http://www.w3.org/2000/svg" xmlns:xlink="http://www.w3.org/1999/xlink" width="64" height="64" version="1.1" viewBox="0 0 64 64"><desc>Created with Sketch.</desc><defs><rect id="path-1" width="64" height="64" x="0" y="0" rx="4"/></defs><g id="Screens" fill="none" fill-rule="evenodd" stroke="none" stroke-width="1"><g id="User-Profile---View---1366px" transform="translate(-60.000000, -171.000000)"><g id="Group" transform="translate(24.000000, 135.000000)"><g id="Group-69-Copy" transform="translate(36.000000, 36.000000)"><g id="Rectangle-Copy-5"><use fill="#F9F9FA" fill-rule="evenodd" xlink:href="#path-1"/><rect width="63" height="63" x=".5" y=".5" stroke="#EBEBEB" stroke-width="1" rx="4"/></g><g id="Icon/User" fill="#D7D7DB" fill-rule="nonzero" transform="translate(8.960000, 8.960000)"><path id="Shape" d="M29.6335833,26.8774167 C27.646,28.0446667 25.4111667,28.75 23,28.75 C20.5888333,28.75 18.354,28.0446667 16.3664167,26.8774167 C9.38016667,27.3355 3.83333333,33.1506667 3.83333333,40.25 L3.83333333,43.5658333 L5.16541667,43.99325 C5.42225,44.07375 11.5728333,46 23,46 C34.4271667,46 40.57775,44.07375 40.8345833,43.99325 L42.1666667,43.5658333 L42.1666667,40.25 C42.1666667,33.1506667 36.6198333,27.3355 29.6335833,26.8774167 Z"/><path id="Shape" d="M23,24.9166667 C29.4764167,24.9166667 34.5,17.70425 34.5,11.5 C34.5,5.15775 29.34225,0 23,0 C16.65775,0 11.5,5.15775 11.5,11.5 C11.5,17.70425 16.5235833,24.9166667 23,24.9166667 Z"/></g></g></g></g></g></svg>