<svg xmlns="http://www.w3.org/2000/svg" xmlns:xlink="http://www.w3.org/1999/xlink" width="83" height="102" version="1.1" viewBox="55 -3 83 102"><desc>Created with Sketch.</desc><g id="Group-6" fill="none" fill-rule="evenodd" stroke="none" stroke-width="1" transform="translate(58.000000, 0.000000)"><path id="Shape" stroke="#FFF" stroke-width="6" d="M48,60.8 L28.8,60.8 C12.8944,60.8 0,73.6944 0,89.6 L0,89.6 C0,89.6 14.4,96 38.4,96 C62.4,96 76.8,89.6 76.8,89.6 L76.8,89.6 C76.8,73.6944 63.9056,60.8 48,60.8 L48,60.8 Z"/><path id="Shape" stroke="#FFF" stroke-width="6" d="M16,22.4 C16,10.0288 26.0288,0 38.4,0 C50.7712,0 60.8,10.0288 60.8,22.4 C60.8,34.7712 50.7712,48 38.4,48 C26.0288,48 16,34.7712 16,22.4 L16,22.4 Z"/></g></svg>