<svg xmlns="http://www.w3.org/2000/svg" xmlns:xlink="http://www.w3.org/1999/xlink" width="10" height="12" version="1.1" viewBox="0 0 10 12"><desc>Created with Sketch.</desc><g id="Symbols" fill="none" fill-rule="evenodd" stroke="none" stroke-width="1"><g id="Block/Extension/Large/Normal" fill="#ADB5BD" transform="translate(-611.000000, -27.000000)"><g id="Icon/User" transform="translate(610.000000, 27.000000)"><g id="Group-2" transform="translate(1.000000, 0.000000)"><path id="Shape" fill-rule="nonzero" d="M6.7305,7.0115 C6.212,7.316 5.629,7.5 5,7.5 C4.371,7.5 3.788,7.316 3.2695,7.0115 C1.447,7.131 0,8.648 0,10.5 L0,11.365 L0.3475,11.4765 C0.4145,11.4975 2.019,12 5,12 C7.981,12 9.5855,11.4975 9.6525,11.4765 L10,11.365 L10,10.5 C10,8.648 8.553,7.131 6.7305,7.0115 Z"/><path id="Shape" fill-rule="nonzero" d="M5,6.5 C6.6895,6.5 8,4.6185 8,3 C8,1.3455 6.6545,0 5,0 C3.3455,0 2,1.3455 2,3 C2,4.6185 3.3105,6.5 5,6.5 Z"/></g></g></g></g></svg>